<svg id="visual" viewBox="0 0 900 600" width="900" height="600" xmlns="http://www.w3.org/2000/svg" xmlns:xlink="http://www.w3.org/1999/xlink" version="1.1"><rect width="900" height="600" fill="#0f1536"></rect><g><g transform="translate(334 206)"><path d="M0 -71.4L71.4 0L0 71.4L-71.4 0Z" fill="none" stroke="#344395" stroke-width="2"></path></g><g transform="translate(766 428)"><path d="M0 -65L65 0L0 65L-65 0Z" fill="none" stroke="#344395" stroke-width="2"></path></g><g transform="translate(685 73)"><path d="M0 -58L58 0L0 58L-58 0Z" fill="none" stroke="#344395" stroke-width="2"></path></g><g transform="translate(258 511)"><path d="M0 -44L44 0L0 44L-44 0Z" stroke="#344395" fill="none" stroke-width="2"></path></g><g transform="translate(505 416)"><path d="M0 -47L47 0L0 47L-47 0Z" stroke="#344395" fill="none" stroke-width="2"></path></g><g transform="translate(126 293)"><path d="M0 -18L18 0L0 18L-18 0Z" stroke="#344395" fill="none" stroke-width="2"></path></g><g transform="translate(694 224)"><path d="M0 -29L29 0L0 29L-29 0Z" stroke="#344395" fill="none" stroke-width="2"></path></g><g transform="translate(513 100)"><path d="M0 -69L69 0L0 69L-69 0Z" stroke="#344395" fill="none" stroke-width="2"></path></g><g transform="translate(96 95)"><path d="M0 -61L61 0L0 61L-61 0Z" stroke="#344395" fill="none" stroke-width="2"></path></g><g transform="translate(79 443)"><path d="M0 -61L61 0L0 61L-61 0Z" stroke="#344395" fill="none" stroke-width="2"></path></g><g transform="translate(482 256)"><path d="M0 -35L35 0L0 35L-35 0Z" stroke="#344395" fill="none" stroke-width="2"></path></g><g transform="translate(604 522)"><path d="M0 -33L33 0L0 33L-33 0Z" stroke="#344395" fill="none" stroke-width="2"></path></g><g transform="translate(266 72)"><path d="M0 -54L54 0L0 54L-54 0Z" stroke="#344395" fill="none" stroke-width="2"></path></g><g transform="translate(291 349)"><path d="M0 -18L18 0L0 18L-18 0Z" stroke="#344395" fill="none" stroke-width="2"></path></g><g transform="translate(822 121)"><path d="M0 -41L41 0L0 41L-41 0Z" stroke="#344395" fill="none" stroke-width="2"></path></g></g></svg>